<svg xmlns="http://www.w3.org/2000/svg" width="48" height="48" viewBox="0 0 48 48"><defs><style>.a{fill:#606c74;}.b{fill:none;}</style></defs><g transform="translate(14.086 13.67)"><rect class="a" width="4.079" height="13.11" transform="translate(0.453 6.867)"/><path class="a" d="M2.417,4.994A2.427,2.427,0,0,0,4.834,2.5,2.339,2.339,0,0,0,2.417,0,2.427,2.427,0,0,0,0,2.5H0A2.427,2.427,0,0,0,2.417,4.994Z"/></g><path class="a" d="M18.028,20.223c0-1.873.906-3.121,2.568-3.121,1.511,0,2.266,1.092,2.266,3.121v6.555h4.079V18.662c0-3.746-1.964-5.462-4.834-5.462a4.586,4.586,0,0,0-4.079,2.341V13.668H14.1v13.11h3.928Z" transform="translate(7.145 6.892)"/><rect class="b" width="48" height="48"/></svg>