<svg xmlns="http://www.w3.org/2000/svg" width="26.234" height="26.234" viewBox="0 0 26.234 26.234">
  <g id="printer_1_" data-name="printer (1)" transform="translate(0.1 0.1)">
    <path id="Path_739" data-name="Path 739" d="M23.322,19.017H20.068a.542.542,0,0,1,0-1.085h3.254a1.629,1.629,0,0,0,1.627-1.627V8.712a1.629,1.629,0,0,0-1.627-1.627H2.712A1.629,1.629,0,0,0,1.085,8.712v7.593a1.629,1.629,0,0,0,1.627,1.627H5.966a.542.542,0,0,1,0,1.085H2.712A2.715,2.715,0,0,1,0,16.305V8.712A2.715,2.715,0,0,1,2.712,6h20.61a2.715,2.715,0,0,1,2.712,2.712v7.593A2.715,2.715,0,0,1,23.322,19.017Z" transform="translate(0 0.509)" fill="#606c74" stroke="#606c74" stroke-width="0.2"/>
    <path id="Path_740" data-name="Path 740" d="M15.051,21.085H8.542a.542.542,0,0,1,0-1.085h6.509a.542.542,0,0,1,0,1.085Z" transform="translate(0.678 1.695)" fill="#606c74" stroke="#606c74" stroke-width="0.2"/>
    <path id="Path_741" data-name="Path 741" d="M15.051,19.085H8.542a.542.542,0,1,1,0-1.085h6.509a.542.542,0,1,1,0,1.085Z" transform="translate(0.678 1.526)" fill="#606c74" stroke="#606c74" stroke-width="0.2"/>
    <path id="Path_742" data-name="Path 742" d="M10.712,17.085H8.542a.542.542,0,1,1,0-1.085h2.17a.542.542,0,0,1,0,1.085Z" transform="translate(0.678 1.356)" fill="#606c74" stroke="#606c74" stroke-width="0.2"/>
    <path id="Path_743" data-name="Path 743" d="M19.644,7.593a.543.543,0,0,1-.542-.542V2.712a1.629,1.629,0,0,0-1.627-1.627H7.712A1.629,1.629,0,0,0,6.085,2.712V7.051A.542.542,0,0,1,5,7.051V2.712A2.715,2.715,0,0,1,7.712,0h9.763a2.715,2.715,0,0,1,2.712,2.712V7.051A.543.543,0,0,1,19.644,7.593Z" transform="translate(0.424)" fill="#606c74" stroke="#606c74" stroke-width="0.2"/>
    <path id="Path_744" data-name="Path 744" d="M17.475,24.932H7.712A2.715,2.715,0,0,1,5,22.22V13.542A.543.543,0,0,1,5.542,13h14.1a.543.543,0,0,1,.542.542V22.22A2.715,2.715,0,0,1,17.475,24.932ZM6.085,14.085V22.22a1.629,1.629,0,0,0,1.627,1.627h9.763A1.629,1.629,0,0,0,19.1,22.22V14.085Z" transform="translate(0.424 1.102)" fill="#606c74" stroke="#606c74" stroke-width="0.2"/>
  </g>
</svg>
