<svg xmlns="http://www.w3.org/2000/svg" width="25.552" height="20.761" viewBox="0 0 25.552 20.761">
  <path id="twitter_2_" data-name="twitter (2)" d="M25.552,50.458a10.922,10.922,0,0,1-3.018.827,5.209,5.209,0,0,0,2.3-2.9,10.469,10.469,0,0,1-3.322,1.268,5.238,5.238,0,0,0-9.062,3.582,5.394,5.394,0,0,0,.121,1.195,14.828,14.828,0,0,1-10.8-5.479,5.24,5.24,0,0,0,1.61,7,5.173,5.173,0,0,1-2.367-.645v.057a5.263,5.263,0,0,0,4.2,5.147,5.228,5.228,0,0,1-1.373.172,4.632,4.632,0,0,1-.992-.089,5.288,5.288,0,0,0,4.895,3.649,10.526,10.526,0,0,1-6.5,2.234A9.813,9.813,0,0,1,0,66.411a14.748,14.748,0,0,0,8.036,2.351,14.807,14.807,0,0,0,14.91-14.907c0-.232-.008-.455-.019-.677A10.451,10.451,0,0,0,25.552,50.458Z" transform="translate(0 -48)" fill="#a2a2a2"/>
</svg>
