<svg xmlns="http://www.w3.org/2000/svg" width="48" height="48" viewBox="0 0 48 48"><defs><style>.a{fill:#606c74;}.b{fill:none;}</style></defs><g transform="translate(14 17)"><path class="a" d="M9.93,13.986a73.468,73.468,0,0,1-7.832-.42A2.73,2.73,0,0,1,.42,11.748,27.314,27.314,0,0,1,0,6.993,26.156,26.156,0,0,1,.42,2.238,2.641,2.641,0,0,1,2.238.42,70.88,70.88,0,0,1,9.93,0a73.467,73.467,0,0,1,7.832.42A2.641,2.641,0,0,1,19.58,2.238,27.314,27.314,0,0,1,20,6.993a27.314,27.314,0,0,1-.42,4.755,2.641,2.641,0,0,1-1.818,1.818A73.468,73.468,0,0,1,9.93,13.986ZM7.972,3.916V9.93l5.175-2.937L7.972,3.916Z" transform="translate(0 0)"/></g><rect class="b" width="48" height="48"/></svg>